<svg xmlns="http://www.w3.org/2000/svg" viewBox="0 0 1600 1000" role="img" aria-labelledby="title">
  <title id="title">CAAD Tech workspace banner</title>
  <rect width="1600" height="1000" fill="#020617"/>
  <path d="M0 620h1600v380H0z" fill="#0f172a"/>
  <rect x="820" y="180" width="520" height="330" rx="28" fill="#111827" stroke="#334155" stroke-width="10"/>
  <rect x="858" y="218" width="444" height="254" rx="16" fill="#ecfdf5"/>
  <path d="M858 472h444l62 94H796l62-94z" fill="#1e293b"/>
  <rect x="936" y="286" width="170" height="32" rx="10" fill="#047857"/>
  <rect x="936" y="348" width="292" height="18" rx="9" fill="#94a3b8"/>
  <rect x="936" y="392" width="236" height="18" rx="9" fill="#cbd5e1"/>
  <rect x="226" y="300" width="420" height="270" rx="36" fill="#111827"/>
  <rect x="276" y="350" width="320" height="44" rx="12" fill="#e2e8f0"/>
  <rect x="276" y="426" width="220" height="44" rx="12" fill="#34d399"/>
  <rect x="276" y="502" width="270" height="24" rx="12" fill="#64748b"/>
  <path d="M690 680h230" stroke="#34d399" stroke-width="18" stroke-linecap="round"/>
</svg>
