<svg xmlns="http://www.w3.org/2000/svg" viewBox="0 0 900 675" role="img" aria-labelledby="title">
  <title id="title">Mechanical keyboard illustration</title>
  <rect width="900" height="675" fill="#f1f5f9"/>
  <rect x="110" y="176" width="680" height="324" rx="36" fill="#111827"/>
  <g fill="#e2e8f0">
    <rect x="154" y="220" width="64" height="48" rx="10"/>
    <rect x="234" y="220" width="64" height="48" rx="10"/>
    <rect x="314" y="220" width="64" height="48" rx="10"/>
    <rect x="394" y="220" width="64" height="48" rx="10"/>
    <rect x="474" y="220" width="64" height="48" rx="10"/>
    <rect x="554" y="220" width="64" height="48" rx="10"/>
    <rect x="634" y="220" width="108" height="48" rx="10"/>
    <rect x="154" y="294" width="84" height="48" rx="10"/>
    <rect x="254" y="294" width="64" height="48" rx="10"/>
    <rect x="334" y="294" width="64" height="48" rx="10"/>
    <rect x="414" y="294" width="64" height="48" rx="10"/>
    <rect x="494" y="294" width="64" height="48" rx="10"/>
    <rect x="574" y="294" width="168" height="48" rx="10"/>
    <rect x="154" y="368" width="128" height="48" rx="10"/>
    <rect x="298" y="368" width="304" height="48" rx="10"/>
    <rect x="618" y="368" width="124" height="48" rx="10"/>
  </g>
  <rect x="154" y="444" width="588" height="18" rx="9" fill="#34d399"/>
</svg>
